<?xml version="1.0" standalone="no"?>
<!DOCTYPE svg PUBLIC "-//W3C//DTD SVG 20010904//EN"
 "http://www.w3.org/TR/2001/REC-SVG-20010904/DTD/svg10.dtd">
<svg version="1.0" xmlns="http://www.w3.org/2000/svg"
 width="900.000000pt" height="900.000000pt" viewBox="0 0 900.000000 900.000000"
 preserveAspectRatio="xMidYMid meet">
<metadata>
Created by potrace 1.11, written by Peter Selinger 2001-2013
</metadata>
<g transform="translate(0.000000,900.000000) scale(0.100000,-0.100000)"
fill="#000000" stroke="none">
<path d="M567 7718 c49 -40 557 -451 1130 -912 l1041 -839 295 -506 c373 -640
1203 -2065 1350 -2318 83 -143 115 -189 123 -180 6 7 403 685 883 1508 l872
1495 942 760 c518 417 1026 826 1129 909 102 82 185 151 183 153 -3 4 69 34
-2150 -893 -214 -90 -415 -174 -446 -188 l-56 -24 -248 -444 c-489 -872 -597
-1064 -604 -1071 -6 -7 -272 763 -271 788 0 6 72 39 160 74 88 35 160 66 160
69 0 3 -126 77 -281 163 l-280 158 -139 -70 c-77 -39 -140 -71 -141 -73 0 -1
-51 -254 -113 -562 -75 -374 -115 -554 -121 -545 -5 8 -197 350 -426 760
l-417 745 -53 27 c-30 14 -207 90 -394 168 -187 78 -760 317 -1272 531 -513
214 -935 389 -939 389 -3 0 34 -33 83 -72z"/>
<path d="M720 7215 c0 -6 113 -156 777 -1033 l268 -354 520 -338 c286 -186
522 -336 524 -334 2 2 -23 50 -56 106 -33 57 -113 195 -178 307 l-119 204
-868 724 c-477 398 -868 721 -868 718z"/>
<path d="M7411 6496 c-831 -693 -866 -724 -906 -791 -93 -154 -305 -524 -312
-542 -5 -14 -4 -16 8 -7 8 6 244 160 525 343 l511 332 523 690 c287 380 520
692 518 693 -1 2 -392 -321 -867 -718z"/>
<path d="M1935 5433 c11 -11 328 -305 705 -653 377 -348 717 -665 757 -703 40
-39 74 -69 77 -66 5 5 -426 746 -446 765 -7 7 -114 75 -238 150 -393 239 -830
503 -853 515 -22 11 -22 11 -2 -8z"/>
<path d="M6544 5129 c-291 -177 -540 -329 -554 -339 -15 -10 -95 -137 -180
-282 -85 -145 -184 -315 -221 -378 -38 -63 -66 -117 -63 -119 2 -3 37 27 77
66 40 38 380 355 757 703 803 741 726 670 719 670 -3 0 -244 -145 -535 -321z"/>
<path d="M3869 2392 c-185 -246 -339 -452 -343 -459 -6 -11 359 -553 373 -553
6 0 314 1450 309 1456 -2 1 -155 -198 -339 -444z"/>
<path d="M4852 2423 c168 -797 219 -1037 224 -1042 2 -2 6 -2 8 0 13 15 367
531 369 539 2 9 -674 919 -684 920 -3 0 34 -188 83 -417z"/>
<path d="M4487 2518 c-5 -31 -43 -215 -197 -958 -34 -162 -64 -310 -67 -327
l-6 -33 272 0 c149 0 271 2 271 4 0 4 -59 315 -120 626 -10 52 -44 232 -76
400 -31 168 -61 309 -64 313 -4 5 -10 -7 -13 -25z"/>
</g>
</svg>
